<?xml version="1.0" encoding="utf-8"?>
<!-- Generator: Adobe Illustrator 16.0.0, SVG Export Plug-In . SVG Version: 6.00 Build 0)  -->
<!DOCTYPE svg PUBLIC "-//W3C//DTD SVG 1.1//EN" "http://www.w3.org/Graphics/SVG/1.1/DTD/svg11.dtd">
<svg version="1.1" id="Capa_1" xmlns="http://www.w3.org/2000/svg" xmlns:xlink="http://www.w3.org/1999/xlink" x="0px" y="0px"
	 width="13px" height="13px" viewBox="0 107.721 13 13" enable-background="new 0 107.721 13 13" xml:space="preserve">
<g>
	<circle fill="#747474" cx="6.5" cy="114.221" r="6.5"/>
	<g>
		<path fill="#FFFFFF" d="M7.6,114.221l1.922-1.921c0.308-0.306,0.308-0.798,0-1.103c-0.305-0.304-0.797-0.304-1.1,0l-1.923,1.922
			l-1.922-1.923c-0.303-0.304-0.797-0.304-1.1,0c-0.303,0.308-0.303,0.8,0,1.104l1.921,1.921l-1.921,1.921
			c-0.303,0.305-0.303,0.797,0,1.1c0.152,0.152,0.351,0.229,0.551,0.229c0.199,0,0.397-0.076,0.552-0.229l1.92-1.921l1.922,1.921
			c0.151,0.152,0.352,0.229,0.551,0.229c0.2,0,0.399-0.076,0.553-0.229c0.307-0.305,0.307-0.797,0-1.1L7.6,114.221z"/>
	</g>
</g>
</svg>
